<svg xmlns="http://www.w3.org/2000/svg" width="1152" height="1152" viewBox="0 0 1152 1152" fill="none">
<rect width="1024" height="1024" transform="translate(64 64)" fill="#F2F4F9"/>
<rect width="1152" height="1152" fill="url(#paint0_linear_1361_43476)"/>
<g clip-path="url(#clip0_1361_43476)">
<path fill-rule="evenodd" clip-rule="evenodd" d="M629.549 676.289L725.338 818H819L708.309 658.846C740.24 645.765 765.784 626.143 782.813 599.98C799.842 573.818 808.357 543.297 808.357 506.233C808.357 471.35 801.971 440.829 784.94 414.667C767.911 388.504 744.496 368.882 714.696 355.801C684.895 340.541 648.708 334 608.261 334H414.554V818H503.957V676.289H610.391H629.549ZM606.159 410.37C644.474 410.37 674.274 416.911 693.433 434.354C712.591 451.793 723.234 475.777 723.234 506.298C723.234 536.821 712.591 560.802 693.433 578.244C674.274 595.687 644.474 604.407 606.159 604.407H503.982V410.37H606.159Z" fill="url(#paint1_linear_1361_43476)"/>
<path fill-rule="evenodd" clip-rule="evenodd" d="M547.995 676.289L643.784 818H737.446L626.755 658.846C658.686 645.765 684.23 626.143 701.259 599.98C718.287 573.818 726.803 543.297 726.803 506.233C726.803 471.35 720.417 440.829 703.386 414.667C686.357 388.504 662.942 368.882 633.141 355.801C603.34 340.541 567.153 334 526.707 334H333V818H422.403V676.289H528.837H547.995ZM524.611 410.37C562.925 410.37 592.726 416.911 611.884 434.354C631.042 451.793 641.685 475.777 641.685 506.298C641.685 536.821 631.042 560.802 611.884 578.244C592.726 595.687 562.925 604.407 524.611 604.407H422.435V410.37H524.611Z" fill="#0B1C49"/>
</g>
<defs>
<linearGradient id="paint0_linear_1361_43476" x1="0" y1="0" x2="1152" y2="1152" gradientUnits="userSpaceOnUse">
<stop offset="0.560417" stop-color="white"/>
<stop offset="0.779167" stop-color="#EFE6FF"/>
<stop offset="1" stop-color="#E2EAFF"/>
</linearGradient>
<linearGradient id="paint1_linear_1361_43476" x1="819" y1="576" x2="414.554" y2="576" gradientUnits="userSpaceOnUse">
<stop stop-color="#A200FF"/>
<stop offset="1" stop-color="#0B3FFF"/>
</linearGradient>
<clipPath id="clip0_1361_43476">
<rect width="486" height="484" fill="white" transform="translate(333 334)"/>
</clipPath>
</defs>
</svg>